# xmcd CD database file
# Copyright (C) 1996 Ti Kan
#
# Track frame offsets:
#	150
#	13490
#	30015
#	50140
#	66322
#	86432
#	102942
#	120660
#	147565
#	165887
#	190822
#
# Disc length: 2756 seconds
#
# Revision: 1
# Processed by: cddbd v1.4b41PL1 Copyright (c) Steve Scherf et al.
# Submitted via: EasyCD 2.21 - (C) 1996 Greg Leichner
#
DISCID=900ac20b
DTITLE=Michael Messer - National Avenue
DYEAR=1900
DGENRE=
TTITLE0=King Guitar
TTITLE1=Step Right Up
TTITLE2=Crow Blues
TTITLE3=Living in Rythem
TTITLE4=Language of the Blues
TTITLE5=Moonbeat
TTITLE6=Rollin' 'n'Tumblin
TTITLE7=Riverboat
TTITLE8=Rising Sun
TTITLE9=Robert Johnson's Wake
TTITLE10=Tailfeather Blues
EXTD=
EXTT0=
EXTT1=
EXTT2=
EXTT3=
EXTT4=
EXTT5=
EXTT6=
EXTT7=
EXTT8=
EXTT9=
EXTT10=
PLAYORDER=
